SplineFontDB: 3.0
FontName: SloppyPhoenician
FullName: Sloppy Phoenician
FamilyName: Sloppy Phoenician
Weight: Medium
Copyright: (C) 2011 Thomas Kaeding; Created by The Mad Doctor Kaeding with FontForge 2.0 (http://fontforge.sf.net)
UComments: "2011-9-13: Created." 
Version: 1.000
ItalicAngle: 0
UnderlinePosition: -100
UnderlineWidth: 50
Ascent: 800
Descent: 200
LayerCount: 2
Layer: 0 0 "Back"  1
Layer: 1 0 "Fore"  0
NeedsXUIDChange: 1
XUID: [1021 114 24073053 4752005]
OS2Version: 0
OS2_WeightWidthSlopeOnly: 0
OS2_UseTypoMetrics: 1
CreationTime: 1315936995
ModificationTime: 1316294231
OS2TypoAscent: 0
OS2TypoAOffset: 1
OS2TypoDescent: 0
OS2TypoDOffset: 1
OS2TypoLinegap: 0
OS2WinAscent: 0
OS2WinAOffset: 1
OS2WinDescent: 0
OS2WinDOffset: 1
HheadAscent: 0
HheadAOffset: 1
HheadDescent: 0
HheadDOffset: 1
OS2Vendor: 'PfEd'
MarkAttachClasses: 1
DEI: 91125
LangName: 1033 
Encoding: ISO8859-1
UnicodeInterp: none
NameList: Adobe Glyph List
DisplaySize: -24
AntiAlias: 1
FitToEm: 1
WinInfo: 16 16 12
BeginPrivate: 0
EndPrivate
Grid
663.099975586 1300 m 0
 663.099975586 -700 l 0
EndSplineSet
BeginChars: 256 42

StartChar: A
Encoding: 65 65 0
Width: 650
VWidth: 0
Flags: HW
LayerCount: 2
Fore
SplineSet
0 400 m 29
 325 657 l 29
 325 800 l 29
 425 800 l 29
 425 720 l 29
 510 800 l 29
 550 700 l 29
 425 600 l 29
 425 200 l 29
 550 100 l 29
 510 0 l 29
 425 80 l 29
 425 0 l 29
 325 0 l 29
 325 143 l 29
 0 400 l 29
325 527 m 29
 160 400 l 29
 325 273 l 29
 325 527 l 29
EndSplineSet
EndChar

StartChar: B
Encoding: 66 66 1
Width: 507
VWidth: 0
Flags: HW
LayerCount: 2
Fore
SplineSet
322.320678711 703.998413086 m 29
 320.320678711 389.998413086 l 29
 116.32068634 545.998413086 l 29
 322.320678711 703.998413086 l 29
406.3203125 799.998046875 m 29
 325 800 l 29
 0 543 l 29
 325 286 l 29
 313.495117188 228.280273438 332.55078125 191.518554688 295.5 138 c 4
 268.5 99 58.5 78 13.5 96 c 4
 5.1435546875 99.3427734375 13.5 0 10.5 0 c 4
 -89.1216328338 0 169.367322281 -11.1352613927 265.5 15 c 28
 318.66015625 29.4521484375 352.183861694 51.5027852787 378.3203125 99.998046875 c 28
 412.084960938 162.646484375 408.3203125 210.998046875 408.3203125 279.998046875 c 13
 406.3203125 799.998046875 l 29
EndSplineSet
EndChar

StartChar: C
Encoding: 67 67 2
Width: 525
VWidth: 0
Flags: HW
LayerCount: 2
Fore
SplineSet
0 543 m 29
 325 800 l 29
 425 800 l 29
 425 0 l 29
 325 0 l 29
 325 670 l 29
 65 470 l 29
 0 543 l 29
EndSplineSet
EndChar

StartChar: D
Encoding: 68 68 3
Width: 712
VWidth: 0
Flags: HW
LayerCount: 2
Fore
SplineSet
0 400 m 29
 510 800 l 29
 610 800 l 29
 610 0 l 29
 510 0 l 29
 0 400 l 29
510 670 m 29
 160 400 l 29
 510 130 l 29
 510 670 l 29
EndSplineSet
EndChar

StartChar: O
Encoding: 79 79 4
Width: 696
VWidth: 0
Flags: HW
LayerCount: 2
Fore
SplineSet
289.844726562 714.810546875 m 28
 376.405273438 711.826171875 430.37940022 656.695519435 463.844726562 576.810546875 c 28
 509.991210938 466.654296875 512.981292843 384.322315507 475.844726562 270.810546875 c 28
 445.737304688 178.783203125 401.659179688 92.384765625 304.844726562 90.810546875 c 28
 202.057617188 89.1396484375 143.320662173 168.699351457 106.844726562 264.810546875 c 28
 61.9921875 382.994140625 76.845703125 486.809570312 115.844726562 588.810546875 c 4
 144.688476562 664.248046875 206.110341124 717.697939476 289.844726562 714.810546875 c 28
-373.154846191 207.810058594 m 25
295.844726562 801.810546875 m 4
 184.68359375 801.810546875 94.8447265625 741.80859375 46.8447265625 651.810546875 c 4
 7.517578125 578.0703125 -0 461.900390625 -0 401.900390625 c 4
 0 210.810058594 50.330078125 144.794921875 85.8447265625 99.810546875 c 4
 130.844726562 42.8095703125 223.844726562 0 307.844726562 0 c 4
 391.844726562 0 518.400390625 86.818359375 551.400390625 182.819335938 c 4
 567.541992188 229.779296875 595.845153809 309.810058594 595.844726562 420.810546875 c 4
 595.844482975 484.095616204 559.845153809 633.810058594 505.844726562 690.810546875 c 4
 457.501626513 741.839408097 403.844726562 801.809570312 295.844726562 801.810546875 c 4
EndSplineSet
EndChar

StartChar: R
Encoding: 82 82 5
Width: 525
VWidth: 0
Flags: HW
LayerCount: 2
Fore
SplineSet
0 543 m 29
 325 800 l 29
 425 800 l 29
 425 0 l 29
 325 0 l 29
 325 286 l 29
 0 543 l 29
325 670 m 29
 160 543 l 29
 325 416 l 29
 325 670 l 29
EndSplineSet
EndChar

StartChar: i
Encoding: 105 105 6
Width: 720
VWidth: 0
Flags: HW
LayerCount: 2
Fore
SplineSet
0 543 m 29
 325 800 l 29
 425 800 l 29
 425 130 l 29
 555 230 l 29
 620 157 l 29
 425 0 l 29
 325 0 l 29
 325 435 l 29
 65 235 l 29
 0 308 l 29
 325 565 l 29
 325 670 l 29
 65 470 l 29
 0 543 l 29
EndSplineSet
EndChar

StartChar: z
Encoding: 122 122 7
Width: 600
VWidth: 0
Flags: H
LayerCount: 2
Fore
SplineSet
0 0 m 29
 0 100 l 29
 200 100 l 29
 200 700 l 29
 0 700 l 29
 0 800 l 29
 500 800 l 29
 500 700 l 29
 300 700 l 29
 300 100 l 29
 500 100 l 29
 500 0 l 29
 0 0 l 29
EndSplineSet
EndChar

StartChar: H
Encoding: 72 72 8
Width: 600
VWidth: 0
Flags: H
LayerCount: 2
Fore
SplineSet
100 500 m 29
 100 300 l 25
 400 300 l 25
 400 500 l 25
 100 500 l 29
0 0 m 25
 0 800 l 25
 100 800 l 25
 100 600 l 25
 400 600 l 25
 400 800 l 25
 500 800 l 25
 500 0 l 25
 400 0 l 25
 400 200 l 25
 100 200 l 25
 100 0 l 25
 0 0 l 25
EndSplineSet
EndChar

StartChar: h
Encoding: 104 104 9
Width: 600
VWidth: 0
Flags: H
LayerCount: 2
Fore
SplineSet
100 450 m 29
 400 450 l 25
 400 700 l 25
 100 700 l 25
 100 450 l 29
100 100 m 29
 400 100 l 25
 400 350 l 25
 100 350 l 25
 100 100 l 29
0 0 m 25
 0 800 l 25
 500 800 l 25
 500 0 l 25
 0 0 l 25
EndSplineSet
EndChar

StartChar: T
Encoding: 84 84 10
Width: 698
VWidth: 0
Flags: HW
LayerCount: 2
Fore
SplineSet
83.2001953125 383.819335938 m 0
 83.2001953125 386.818359375 251.200012207 377.818954468 248.200195312 377.819335938 c 1
 250.569085726 341.394711549 245.200012207 197.818954468 242.200195312 107.819335938 c 1
 188.200000763 140.818954468 152.86113685 156.596569496 122.200195312 209.819335938 c 28
 87.4853515625 270.079101562 83.203125 332.0078125 83.2001953125 383.819335938 c 0
245.200195312 461.819335938 m 0
 245.200195312 458.818359375 95.0419921875 467.823242188 95.2001953125 470.819335938 c 0
 98.2001953125 527.818359375 97.9698701745 567.435460708 128.200195312 617.819335938 c 24
 157.256835938 666.247070312 189.216796875 710.825195312 239.200195312 710.819335938 c 0
 242.200195312 710.818359375 245.200195312 466.061523438 245.200195312 461.819335938 c 0
338.200195312 371.819335938 m 0
 338.200195312 367.576171875 503.200195312 362.818359375 503.200195312 359.819335938 c 0
 503.204101562 287.6484375 481.524414062 256.421875 446.200195312 200.819335938 c 24
 416.447265625 153.985351562 341.200195312 101.819335938 341.200195312 104.819335938 c 0
 341.200195312 191.469726562 338.200195312 374.818359375 338.200195312 371.819335938 c 0
323.200195312 704.819335938 m 0
 322.928710938 707.806640625 416.819335938 667.120117188 452.200195312 617.819335938 c 24
 492.326171875 561.90625 510.360351562 448.987304688 506.200195312 449.819335938 c 0
 461.200195312 458.818359375 338.200195312 446.818359375 338.200195312 449.818359375 c 0
 338.200195312 452.818359375 329.200195312 638.818359375 323.200195312 704.819335938 c 0
295.844726562 801.810546875 m 0
 184.68359375 801.810546875 94.8447265625 741.80859375 46.8447265625 651.810546875 c 0
 7.517578125 578.0703125 0 461.900390625 0 401.900390625 c 0
 0 210.809570312 50.330078125 144.794921875 85.8447265625 99.810546875 c 0
 130.844726562 42.8095703125 223.844726562 0 307.844726562 0 c 0
 391.844726562 0 518.200195312 95.818359375 551.200195312 191.819335938 c 0
 567.342773438 238.779296875 595.844726562 309.809570312 595.844726562 420.810546875 c 0
 595.844726562 484.095703125 559.844726562 633.809570312 505.844726562 690.810546875 c 0
 457.500976562 741.838867188 403.844726562 801.809570312 295.844726562 801.810546875 c 0
EndSplineSet
EndChar

StartChar: E
Encoding: 69 69 11
Width: 525
VWidth: 0
Flags: H
LayerCount: 2
Fore
SplineSet
0 543 m 29
 325 800 l 29
 425 800 l 29
 425 0 l 29
 325 0 l 29
 325 200 l 29
 65 0 l 29
 0 73 l 29
 325 330 l 29
 325 435 l 29
 65 235 l 29
 0 308 l 29
 325 565 l 29
 325 670 l 29
 65 470 l 29
 0 543 l 29
EndSplineSet
EndChar

StartChar: L
Encoding: 76 76 12
Width: 525
VWidth: 0
Flags: H
LayerCount: 2
Fore
SplineSet
103.5 798 m 29
 63.134765625 604.950195312 11.5331705485 499.887697221 0 303 c 28
 -5.25390625 213.3125 5.50395946514 151.255901789 61.5 81 c 28
 109.48046875 20.8017578125 164.533206024 1.4386316631 241.5 0 c 28
 303.774414062 -1.1640625 343.055664062 21.2119140625 382.5 75 c 4
 415.5 120 408.120117188 171.990234375 424.5 234 c 29
 334.5 261 l 21
 334.5 198 319.5 141 274.5 111 c 4
 225.543604842 78.3624032277 163.408089932 107.225509566 130.5 156 c 28
 85.6953125 222.407226562 97.56821824 280.390640835 106.5 360 c 28
 124.823242188 523.317382812 163.23046875 610.709960938 199.5 771 c 29
 103.5 798 l 29
EndSplineSet
EndChar

StartChar: p
Encoding: 112 112 14
Width: 527
VWidth: 0
Flags: HW
LayerCount: 2
Fore
SplineSet
150.099609375 2.947265625 m 29
 72.099609375 56.947265625 l 29
 134.109375 136.506835938 178.595703125 174.817382812 231.099609375 260.947265625 c 28
 283.416015625 346.76953125 321.250976562 396.034179688 339.099609375 494.947265625 c 28
 350.795898438 559.764648438 342.858398438 607.436523438 303.099609375 659.947265625 c 28
 272.265625 700.670898438 230.635742188 712.37890625 180.099609375 704.947265625 c 28
 137.505859375 698.68359375 120.099609375 677.947265625 99.099609375 629.947265625 c 5
 88.09375 569.561523438 116.299804688 556.525390625 144.099609375 482.947265625 c 13
 75.099609375 428.947265625 l 29
 45.849609375 501.487304688 -1.9580078125 536.758789062 0.099609375 614.947265625 c 28
 1.9169921875 684.022460938 26.208984375 733.219726562 84.099609375 770.947265625 c 28
 144.181640625 810.1015625 198.87890625 811.055664062 267.099609375 788.947265625 c 28
 336.517578125 766.450195312 376.88671875 731.907226562 408.099609375 665.947265625 c 28
 443.758789062 590.592773438 445.25 534.083984375 426.099609375 452.947265625 c 28
 399.174804688 338.87109375 355.380859375 282.862304688 294.099609375 182.947265625 c 28
 247.09765625 106.313476562 206.259765625 73.1474609375 150.099609375 2.947265625 c 29
EndSplineSet
EndChar

StartChar: r
Encoding: 114 114 15
Width: 525
VWidth: 0
Flags: HW
LayerCount: 2
Fore
SplineSet
0 543 m 29
 325 800 l 29
 425 800 l 29
 425 0 l 29
 325 0 l 29
 325 286 l 29
 0 543 l 29
325 670 m 29
 160 543 l 29
 325 416 l 29
 325 670 l 29
EndSplineSet
EndChar

StartChar: x
Encoding: 120 120 16
Width: 651
VWidth: 650
Flags: HW
LayerCount: 2
Fore
SplineSet
225 0 m 25
 225 125 l 25
 0 125 l 25
 0 225 l 25
 225 225 l 25
 225 350 l 25
 0 350 l 25
 0 450 l 25
 225 450 l 25
 225 575 l 25
 0 575 l 25
 0 675 l 25
 225 675 l 25
 225 800 l 25
 325 800 l 25
 325 675 l 25
 550 675 l 25
 550 575 l 25
 325 575 l 25
 325 450 l 25
 550 450 l 25
 550 350 l 25
 325 350 l 25
 325 225 l 25
 550 225 l 25
 550 125 l 25
 325 125 l 25
 325 0 l 25
 225 0 l 25
EndSplineSet
EndChar

StartChar: F
Encoding: 70 70 17
Width: 731
VWidth: 0
Flags: HW
LayerCount: 2
Fore
SplineSet
0 801 m 21
 11.0000038147 740.600006104 -12 729 27 630 c 4
 39.8310546875 597.428710938 95.0000038147 509.600006104 125 485.599609375 c 4
 175.677826778 445.056672619 233.000015259 443.600006104 281 431.599609375 c 13
 284.000015259 0 l 29
 386 0 l 29
 380 431.599609375 l 21
 446.000015259 446.600006104 486.179584239 460.254988449 534 507 c 28
 587.826171875 559.615234375 608.969076613 602.443653605 629 675 c 4
 638.000015259 707.600006104 638.000015259 752.600006104 636 801 c 13
 542 804 l 29
 533.030273438 744.330078125 545.559230665 705.180830557 519 651 c 28
 494.23828125 600.485351562 469.787212727 568.453821124 417 549 c 28
 349.655273438 524.181640625 300.590842407 521.460022801 233 545.599609375 c 28
 176.278320312 565.857421875 150.947119662 600.646407918 123 654 c 28
 96.7109375 704.188476562 101.000003815 743.600006104 101 797.599609375 c 13
 0 801 l 21
EndSplineSet
EndChar

StartChar: Q
Encoding: 81 81 18
Width: 715
VWidth: 0
Flags: HW
LayerCount: 2
Fore
SplineSet
366.5 447.161132812 m 13
 353.000015259 714 l 21
 422.000834184 699.36012278 459.370149661 705.203912453 494 657 c 5
 525.500015259 621.160995483 530.401694259 557.03495752 500 507 c 28
 470.373046875 458.239257812 417.500015259 453.160995483 366.5 447.161132812 c 13
263.000015259 714 m 13
 269.000015259 456 l 21
 207.499992371 471.160995483 154.0138317 475.755960672 119 531 c 28
 90.0185546875 576.7265625 100.522191792 626.45528991 134 669 c 28
 166.950195312 710.874023438 210.499992371 711.160995483 263.000015259 714 c 13
335.000015259 798 m 28
 261.87109375 799.3671875 217.958817799 798.379377429 149.000003815 774 c 28
 98.4736328125 756.137695312 63.4999980927 732.160995483 38 693 c 4
 1.78884070513 637.389601896 -5.75093406801 589.211925148 11.0000038147 525 c 28
 25.4228515625 469.711914062 61.7938653868 447.676632215 110.000003815 417 c 28
 167.767578125 380.239257812 210.499992371 366.160995483 275.000015259 357 c 13
 284.000015259 0 l 29
 389.000015259 0 l 29
 380.000015259 354 l 21
 469.552395428 367.303315077 488.42781362 366.241988196 539.000015259 408 c 13
 591.056640625 451.168945312 614.192675027 491.411080997 626.000015259 558 c 28
 635.158203125 609.647460938 619.779155008 645.054582113 588.5 687.161132812 c 28
 555.138671875 732.0703125 521.2587938 745.587901459 470 768 c 28
 420.583007812 789.606445312 388.924802305 796.992060043 335.000015259 798 c 28
EndSplineSet
EndChar

StartChar: S
Encoding: 83 83 19
Width: 623
VWidth: 0
Flags: HW
LayerCount: 2
Fore
SplineSet
0 0 m 25
 0 804 l 25
 101.000003815 804 l 25
 92 530.599609375 l 25
 260.000015259 801 l 25
 350 596.599609375 l 25
 440.000015259 798 l 25
 521.000015259 753 l 25
 365 392.599609375 l 25
 251 599.599609375 l 25
 89 350.599609375 l 25
 92.0000038147 0 l 25
 0 0 l 25
EndSplineSet
EndChar

StartChar: P
Encoding: 80 80 20
Width: 527
VWidth: 0
Flags: HW
LayerCount: 2
Fore
SplineSet
150.099609375 2.947265625 m 29
 72.099609375 56.947265625 l 29
 134.109375 136.506835938 178.595703125 174.817382812 231.099609375 260.947265625 c 28
 283.416015625 346.76953125 321.250976562 396.034179688 339.099609375 494.947265625 c 28
 350.795898438 559.764648438 342.858398438 607.436523438 303.099609375 659.947265625 c 28
 272.265625 700.670898438 230.635742188 712.37890625 180.099609375 704.947265625 c 28
 137.505859375 698.68359375 120.099609375 677.947265625 99.099609375 629.947265625 c 5
 88.09375 569.561523438 116.299804688 556.525390625 144.099609375 482.947265625 c 13
 75.099609375 428.947265625 l 29
 45.849609375 501.487304688 -1.9580078125 536.758789062 0.099609375 614.947265625 c 28
 1.9169921875 684.022460938 26.208984375 733.219726562 84.099609375 770.947265625 c 28
 144.181640625 810.1015625 198.87890625 811.055664062 267.099609375 788.947265625 c 28
 336.517578125 766.450195312 376.88671875 731.907226562 408.099609375 665.947265625 c 28
 443.758789062 590.592773438 445.25 534.083984375 426.099609375 452.947265625 c 28
 399.174804688 338.87109375 355.380859375 282.862304688 294.099609375 182.947265625 c 28
 247.09765625 106.313476562 206.259765625 73.1474609375 150.099609375 2.947265625 c 29
EndSplineSet
EndChar

StartChar: K
Encoding: 75 75 21
Width: 574
VWidth: 0
Flags: HW
LayerCount: 2
Fore
SplineSet
365 800.599609375 m 29
 467 803.599609375 l 29
 473 0 l 29
 368 0 l 29
 374.599609375 383.639648438 l 29
 50.599609375 146.639648438 l 29
 0 230.639648438 l 29
 323.599609375 443.639648438 l 29
 11 638.599609375 l 29
 62 732 l 29
 368.599609375 518.639648438 l 29
 365 800.599609375 l 29
EndSplineSet
EndChar

StartChar: M
Encoding: 77 77 22
Width: 608
VWidth: 0
Flags: HW
LayerCount: 2
Fore
SplineSet
0 768 m 29
 89 804 l 29
 143 614.299804688 l 29
 233 801 l 29
 326 608.299804688 l 29
 413 807 l 29
 503 798 l 29
 509.200195312 488.299804688 l 29
 496.330078125 422.780273438 500.200012207 404.299987793 476.200195312 320.299804688 c 4
 455.490897515 247.816551393 446 216 404 141 c 4
 385.037109375 107.137695312 344.200012207 47.3000106812 299 -0 c 5
 263 24 242 36 206 57 c 13
 260.990234375 130.709960938 306.097560327 163.63481326 347 246 c 28
 392.758789062 338.143554688 402.533424242 397.602489582 425 498 c 28
 440.15234375 565.7109375 435.98046875 605.969726562 443 675 c 29
 317 440.299804688 l 29
 236 626.299804688 l 29
 134 434.299804688 l 29
 0 768 l 29
EndSplineSet
EndChar

StartChar: N
Encoding: 78 78 23
Width: 463
VWidth: 0
Flags: HW
LayerCount: 2
Fore
SplineSet
72.900390625 427.5 m 29
 0 784.5 l 29
 90.900390625 796.5 l 29
 90.900390625 796.5 l 29
 90.900390625 796.5 l 29
 135.700195312 517.049804688 l 29
 265.700195312 543.049804688 l 29
 355.700195312 561.049804688 l 29
 357.900390625 466.5 l 21
 347.119140625 408.3984375 360.899414062 427.5 342.900390625 334.5 c 5
 315.487304688 219.564453125 332.00390625 269.146484375 267.900390625 142.5 c 5
 248.9375 108.637695312 192.899414062 46.5 140 -3 c 5
 104 21 83 33 47 54 c 13
 101.561523438 117.764648438 137.029906284 150.00320096 186.900390625 217.5 c 28
 217.200195312 258.508789062 233.88866076 283.274418206 251.700195312 331.049804688 c 28
 269.76171875 379.49609375 267.560546875 410.349609375 277.700195312 461.049804688 c 29
 72.900390625 427.5 l 29
EndSplineSet
EndChar

StartChar: s
Encoding: 115 115 24
Width: 1266
VWidth: 0
Flags: HW
LayerCount: 2
Fore
SplineSet
415.799804688 0 m 5
 0 750 l 5
 87 800 l 5
 400 210 l 5
 628.799804688 798 l 5
 812 210 l 5
 1075.79980469 801 l 5
 1168.79980469 750 l 5
 812 0 l 5
 619.799804688 528 l 5
 415.799804688 0 l 5
EndSplineSet
EndChar

StartChar: a
Encoding: 97 97 26
Width: 650
VWidth: 0
Flags: HW
LayerCount: 2
Fore
SplineSet
0 400 m 29
 325 657 l 29
 325 800 l 29
 425 800 l 29
 425 720 l 29
 510 800 l 29
 550 700 l 29
 425 600 l 29
 425 200 l 29
 550 100 l 29
 510 0 l 29
 425 80 l 29
 425 0 l 29
 325 0 l 29
 325 143 l 29
 0 400 l 29
325 527 m 29
 160 400 l 29
 325 273 l 29
 325 527 l 29
EndSplineSet
EndChar

StartChar: b
Encoding: 98 98 27
Width: 507
VWidth: 0
Flags: HW
LayerCount: 2
Fore
SplineSet
322.320678711 703.998413086 m 29
 320.320678711 389.998413086 l 29
 116.32068634 545.998413086 l 29
 322.320678711 703.998413086 l 29
406.3203125 799.998046875 m 29
 325 800 l 29
 0 543 l 29
 325 286 l 29
 313.495117188 228.280273438 332.55078125 191.518554688 295.5 138 c 4
 268.5 99 58.5 78 13.5 96 c 4
 5.1435546875 99.3427734375 13.5 0 10.5 0 c 4
 -89.1216328338 0 169.367322281 -11.1352613927 265.5 15 c 28
 318.66015625 29.4521484375 352.183861694 51.5027852787 378.3203125 99.998046875 c 28
 412.084960938 162.646484375 408.3203125 210.998046875 408.3203125 279.998046875 c 13
 406.3203125 799.998046875 l 29
EndSplineSet
EndChar

StartChar: c
Encoding: 99 99 28
Width: 525
VWidth: 0
Flags: HW
LayerCount: 2
Fore
SplineSet
0 543 m 29
 325 800 l 29
 425 800 l 29
 425 0 l 29
 325 0 l 29
 325 670 l 29
 65 470 l 29
 0 543 l 29
EndSplineSet
EndChar

StartChar: d
Encoding: 100 100 29
Width: 712
VWidth: 0
Flags: HW
LayerCount: 2
Fore
SplineSet
0 400 m 29
 510 800 l 29
 610 800 l 29
 610 0 l 29
 510 0 l 29
 0 400 l 29
510 670 m 29
 160 400 l 29
 510 130 l 29
 510 670 l 29
EndSplineSet
EndChar

StartChar: e
Encoding: 101 101 30
Width: 525
VWidth: 0
Flags: HW
LayerCount: 2
Fore
SplineSet
0 543 m 29
 325 800 l 29
 425 800 l 29
 425 0 l 29
 325 0 l 29
 325 200 l 29
 65 0 l 29
 0 73 l 29
 325 330 l 29
 325 435 l 29
 65 235 l 29
 0 308 l 29
 325 565 l 29
 325 670 l 29
 65 470 l 29
 0 543 l 29
EndSplineSet
EndChar

StartChar: f
Encoding: 102 102 31
Width: 731
VWidth: 0
Flags: HW
LayerCount: 2
Fore
SplineSet
0 801 m 21
 11.0000038147 740.600006104 -12 729 27 630 c 4
 39.8310546875 597.428710938 95.0000038147 509.600006104 125 485.599609375 c 4
 175.677826778 445.056672619 233.000015259 443.600006104 281 431.599609375 c 13
 284.000015259 0 l 29
 386 0 l 29
 380 431.599609375 l 21
 446.000015259 446.600006104 486.179584239 460.254988449 534 507 c 28
 587.826171875 559.615234375 608.969076613 602.443653605 629 675 c 4
 638.000015259 707.600006104 638.000015259 752.600006104 636 801 c 13
 542 804 l 29
 533.030273438 744.330078125 545.559230665 705.180830557 519 651 c 28
 494.23828125 600.485351562 469.787212727 568.453821124 417 549 c 28
 349.655273438 524.181640625 300.590842407 521.460022801 233 545.599609375 c 28
 176.278320312 565.857421875 150.947119662 600.646407918 123 654 c 28
 96.7109375 704.188476562 101.000003815 743.600006104 101 797.599609375 c 13
 0 801 l 21
EndSplineSet
EndChar

StartChar: t
Encoding: 116 116 32
Width: 575
VWidth: 0
Flags: HW
LayerCount: 2
Fore
SplineSet
87 0 m 25
 0 50 l 25
 189 400 l 25
 0 750 l 25
 87 800 l 25
 243 491 l 25
 400 800 l 25
 487 750 l 25
 297 400 l 25
 487 50 l 25
 400 0 l 25
 243 305 l 25
 87 0 l 25
EndSplineSet
EndChar

StartChar: I
Encoding: 73 73 33
Width: 720
VWidth: 0
Flags: HW
LayerCount: 2
Fore
SplineSet
0 543 m 29
 325 800 l 29
 425 800 l 29
 425 130 l 29
 555 230 l 29
 620 157 l 29
 425 0 l 29
 325 0 l 29
 325 435 l 29
 65 235 l 29
 0 308 l 29
 325 565 l 29
 325 670 l 29
 65 470 l 29
 0 543 l 29
EndSplineSet
EndChar

StartChar: k
Encoding: 107 107 34
Width: 574
VWidth: 0
Flags: HW
LayerCount: 2
Fore
SplineSet
365 800.599609375 m 29
 467 803.599609375 l 29
 473 0 l 29
 368 0 l 29
 374.599609375 383.639648438 l 29
 50.599609375 146.639648438 l 29
 0 230.639648438 l 29
 323.599609375 443.639648438 l 29
 11 638.599609375 l 29
 62 732 l 29
 368.599609375 518.639648438 l 29
 365 800.599609375 l 29
EndSplineSet
EndChar

StartChar: l
Encoding: 108 108 35
Width: 525
VWidth: 0
Flags: HW
LayerCount: 2
Fore
SplineSet
103.5 798 m 29
 63.134765625 604.950195312 11.5331705485 499.887697221 0 303 c 28
 -5.25390625 213.3125 5.50395946514 151.255901789 61.5 81 c 28
 109.48046875 20.8017578125 164.533206024 1.4386316631 241.5 0 c 28
 303.774414062 -1.1640625 343.055664062 21.2119140625 382.5 75 c 4
 415.5 120 408.120117188 171.990234375 424.5 234 c 29
 334.5 261 l 21
 334.5 198 319.5 141 274.5 111 c 4
 225.543604842 78.3624032277 163.408089932 107.225509566 130.5 156 c 28
 85.6953125 222.407226562 97.56821824 280.390640835 106.5 360 c 28
 124.823242188 523.317382812 163.23046875 610.709960938 199.5 771 c 29
 103.5 798 l 29
EndSplineSet
EndChar

StartChar: m
Encoding: 109 109 36
Width: 608
VWidth: 0
Flags: HW
LayerCount: 2
Fore
SplineSet
0 768 m 29
 89 804 l 29
 143 614.299804688 l 29
 233 801 l 29
 326 608.299804688 l 29
 413 807 l 29
 503 798 l 29
 509.200195312 488.299804688 l 29
 496.330078125 422.780273438 500.200012207 404.299987793 476.200195312 320.299804688 c 4
 455.490897515 247.816551393 446 216 404 141 c 4
 385.037109375 107.137695312 344.200012207 47.3000106812 299 -0 c 5
 263 24 242 36 206 57 c 13
 260.990234375 130.709960938 306.097560327 163.63481326 347 246 c 28
 392.758789062 338.143554688 402.533424242 397.602489582 425 498 c 28
 440.15234375 565.7109375 435.98046875 605.969726562 443 675 c 29
 317 440.299804688 l 29
 236 626.299804688 l 29
 134 434.299804688 l 29
 0 768 l 29
EndSplineSet
EndChar

StartChar: n
Encoding: 110 110 37
Width: 463
VWidth: 0
Flags: HW
LayerCount: 2
Fore
SplineSet
72.900390625 427.5 m 29
 0 784.5 l 29
 90.900390625 796.5 l 29
 90.900390625 796.5 l 29
 90.900390625 796.5 l 29
 135.700195312 517.049804688 l 29
 265.700195312 543.049804688 l 29
 355.700195312 561.049804688 l 29
 357.900390625 466.5 l 21
 347.119140625 408.3984375 360.899414062 427.5 342.900390625 334.5 c 5
 315.487304688 219.564453125 332.00390625 269.146484375 267.900390625 142.5 c 5
 248.9375 108.637695312 192.899414062 46.5 140 -3 c 5
 104 21 83 33 47 54 c 13
 101.561523438 117.764648438 137.029906284 150.00320096 186.900390625 217.5 c 28
 217.200195312 258.508789062 233.88866076 283.274418206 251.700195312 331.049804688 c 28
 269.76171875 379.49609375 267.560546875 410.349609375 277.700195312 461.049804688 c 29
 72.900390625 427.5 l 29
EndSplineSet
EndChar

StartChar: o
Encoding: 111 111 38
Width: 696
VWidth: 0
Flags: HW
LayerCount: 2
Fore
SplineSet
289.844726562 714.810546875 m 28
 376.405273438 711.826171875 430.37940022 656.695519435 463.844726562 576.810546875 c 28
 509.991210938 466.654296875 512.981292843 384.322315507 475.844726562 270.810546875 c 28
 445.737304688 178.783203125 401.659179688 92.384765625 304.844726562 90.810546875 c 28
 202.057617188 89.1396484375 143.320662173 168.699351457 106.844726562 264.810546875 c 28
 61.9921875 382.994140625 76.845703125 486.809570312 115.844726562 588.810546875 c 4
 144.688476562 664.248046875 206.110341124 717.697939476 289.844726562 714.810546875 c 28
295.844726562 801.810546875 m 4
 184.68359375 801.810546875 94.8447265625 741.80859375 46.8447265625 651.810546875 c 4
 7.517578125 578.0703125 -0 461.900390625 -0 401.900390625 c 4
 0 210.810058594 50.330078125 144.794921875 85.8447265625 99.810546875 c 4
 130.844726562 42.8095703125 223.844726562 0 307.844726562 0 c 4
 391.844726562 0 518.400390625 86.818359375 551.400390625 182.819335938 c 4
 567.541992188 229.779296875 595.845153809 309.810058594 595.844726562 420.810546875 c 4
 595.844482975 484.095616204 559.845153809 633.810058594 505.844726562 690.810546875 c 4
 457.501626513 741.839408097 403.844726562 801.809570312 295.844726562 801.810546875 c 4
EndSplineSet
EndChar

StartChar: q
Encoding: 113 113 39
Width: 715
VWidth: 0
Flags: HW
LayerCount: 2
Fore
SplineSet
366.5 447.161132812 m 13
 353.000015259 714 l 21
 422.000834184 699.36012278 459.370149661 705.203912453 494 657 c 5
 525.500015259 621.160995483 530.401694259 557.03495752 500 507 c 28
 470.373046875 458.239257812 417.500015259 453.160995483 366.5 447.161132812 c 13
263.000015259 714 m 13
 269.000015259 456 l 21
 207.499992371 471.160995483 154.0138317 475.755960672 119 531 c 28
 90.0185546875 576.7265625 100.522191792 626.45528991 134 669 c 28
 166.950195312 710.874023438 210.499992371 711.160995483 263.000015259 714 c 13
335.000015259 798 m 28
 261.87109375 799.3671875 217.958817799 798.379377429 149.000003815 774 c 28
 98.4736328125 756.137695312 63.4999980927 732.160995483 38 693 c 4
 1.78884070513 637.389601896 -5.75093406801 589.211925148 11.0000038147 525 c 28
 25.4228515625 469.711914062 61.7938653868 447.676632215 110.000003815 417 c 28
 167.767578125 380.239257812 210.499992371 366.160995483 275.000015259 357 c 13
 284.000015259 0 l 29
 389.000015259 0 l 29
 380.000015259 354 l 21
 469.552395428 367.303315077 488.42781362 366.241988196 539.000015259 408 c 13
 591.056640625 451.168945312 614.192675027 491.411080997 626.000015259 558 c 28
 635.158203125 609.647460938 619.779155008 645.054582113 588.5 687.161132812 c 28
 555.138671875 732.0703125 521.2587938 745.587901459 470 768 c 28
 420.583007812 789.606445312 388.924802305 796.992060043 335.000015259 798 c 28
EndSplineSet
EndChar

StartChar: X
Encoding: 88 88 40
Width: 651
VWidth: 650
Flags: HW
LayerCount: 2
Fore
SplineSet
225 0 m 25
 225 125 l 25
 0 125 l 25
 0 225 l 25
 225 225 l 25
 225 350 l 25
 0 350 l 25
 0 450 l 25
 225 450 l 25
 225 575 l 25
 0 575 l 25
 0 675 l 25
 225 675 l 25
 225 800 l 25
 325 800 l 25
 325 675 l 25
 550 675 l 25
 550 575 l 25
 325 575 l 25
 325 450 l 25
 550 450 l 25
 550 350 l 25
 325 350 l 25
 325 225 l 25
 550 225 l 25
 550 125 l 25
 325 125 l 25
 325 0 l 25
 225 0 l 25
EndSplineSet
EndChar

StartChar: Z
Encoding: 90 90 41
Width: 600
VWidth: 0
Flags: HW
LayerCount: 2
Fore
SplineSet
0 0 m 29
 0 100 l 29
 200 100 l 29
 200 700 l 29
 0 700 l 29
 0 800 l 29
 500 800 l 29
 500 700 l 29
 300 700 l 29
 300 100 l 29
 500 100 l 29
 500 0 l 29
 0 0 l 29
EndSplineSet
EndChar
